<svg width="36" height="34" viewBox="0 0 36 34" fill="none" xmlns="http://www.w3.org/2000/svg">
<g clip-path="url(#clip0_5_7201)">
<path d="M17.9559 33.8824C17.5518 32.8399 17.2012 31.8413 16.7824 30.872C14.5058 25.6127 11.0778 21.2707 6.36818 17.969C4.47596 16.6425 2.79022 15.1095 1.34479 13.2998C-1.65117 9.54932 0.671669 4.04917 5.23505 3.14504C5.5334 3.08574 5.83983 3.06671 6.14038 3.0162C6.4255 2.96861 6.55703 3.0528 6.64889 3.35662C7.29041 5.48039 8.42795 7.30255 10.0637 8.80919C16.0402 14.3152 25.7534 12.2295 28.9911 4.74245C29.1983 4.26294 29.3614 3.76366 29.5253 3.26657C29.5885 3.07403 29.6723 3.00448 29.8854 3.00814C33.334 3.06744 36.2359 6.25201 35.9853 9.68696C35.8905 10.9827 35.4371 12.1197 34.6494 13.1439C33.2987 14.8994 31.7254 16.4251 29.9008 17.6784C25.5689 20.6551 22.257 24.5168 19.9099 29.1948C19.2074 30.5953 18.6834 32.0851 18.0787 33.5346C18.0368 33.6349 18.0059 33.7403 17.9567 33.8824H17.9559Z" fill="#5B00A2"/>
<path d="M22.3194 4.22267C22.3231 6.57705 20.4139 8.48633 18.0617 8.48047C15.7308 8.47461 13.8209 6.56168 13.8231 4.23438C13.8253 1.90269 15.733 0 18.0683 0C20.4154 0 22.3157 1.88658 22.3194 4.22267Z" fill="#5B00A2"/>
</g>
<defs>
<clipPath id="clip0_5_7201">
<rect width="36" height="33.8824" fill="white"/>
</clipPath>
</defs>
</svg>
